<svg width="24" height="24" viewBox="0 0 24 24" fill="none" xmlns="http://www.w3.org/2000/svg">
<path d="M11.75 12C14.5117 12 16.75 9.76172 16.75 7C16.75 4.23828 14.5117 2 11.75 2C8.98828 2 6.75 4.23828 6.75 7C6.75 9.76172 8.98828 12 11.75 12ZM15.25 13.25H14.5977C13.7305 13.6484 12.7656 13.875 11.75 13.875C10.7344 13.875 9.77344 13.6484 8.90234 13.25H8.25C5.35156 13.25 3 15.6016 3 18.5V20.125C3 21.1602 3.83984 22 4.875 22H18.625C19.6602 22 20.5 21.1602 20.5 20.125V18.5C20.5 15.6016 18.1484 13.25 15.25 13.25Z" fill="black"/>
</svg>
