<svg width="24" height="24" viewBox="0 0 24 24" fill="none" xmlns="http://www.w3.org/2000/svg">
<path d="M20.3375 13.5735L21.9789 6.35133C22.0974 5.82987 21.7011 5.33331 21.1663 5.33331H7.52806L7.20979 3.7774C7.13049 3.38959 6.78924 3.11108 6.39337 3.11108H2.83333C2.37309 3.11108 2 3.48417 2 3.94442V4.49997C2 4.96022 2.37309 5.33331 2.83333 5.33331H5.25983L7.69899 17.2581C7.11545 17.5937 6.72222 18.223 6.72222 18.9444C6.72222 20.0183 7.59278 20.8889 8.66667 20.8889C9.74056 20.8889 10.6111 20.0183 10.6111 18.9444C10.6111 18.4002 10.3873 17.9085 10.0269 17.5555H17.3064C16.9461 17.9085 16.7222 18.4002 16.7222 18.9444C16.7222 20.0183 17.5928 20.8889 18.6667 20.8889C19.7406 20.8889 20.6111 20.0183 20.6111 18.9444C20.6111 18.1746 20.1636 17.5093 19.5146 17.1942L19.7062 16.3513C19.8247 15.8299 19.4283 15.3333 18.8936 15.3333H9.57351L9.34625 14.2222H19.5249C19.914 14.2222 20.2513 13.953 20.3375 13.5735Z" fill="black"/>
</svg>
