<svg width="24" height="24" viewBox="0 0 24 24" fill="none" xmlns="http://www.w3.org/2000/svg">
<path d="M21.4587 3.44255C18.8791 1.2735 14.8935 1.5993 12.4255 4.11201C9.95739 1.5993 5.97187 1.26903 3.39221 3.44255C0.0359818 6.26767 0.52692 10.8736 2.91913 13.3149L10.7474 21.2904C11.1937 21.7456 11.7917 22 12.4255 22C13.0637 22 13.6573 21.7501 14.1036 21.2948L21.9318 13.3193C24.3196 10.878 24.8194 6.27214 21.4587 3.44255ZM20.4054 11.8108L12.5772 19.7863C12.4701 19.8934 12.3808 19.8934 12.2737 19.7863L4.4455 11.8108C2.81647 10.1505 2.48621 7.00854 4.7713 5.08496C6.50743 3.62554 9.18528 3.84423 10.8634 5.55358L12.4255 7.1469L13.9875 5.55358C15.6746 3.8353 18.3524 3.62554 20.0796 5.0805C22.3603 7.00408 22.0211 10.1639 20.4054 11.8108Z" fill="black"/>
</svg>
