<svg width="24" height="24" viewBox="0 0 24 24" fill="none" xmlns="http://www.w3.org/2000/svg">
<path d="M19.8257 6.69889L14.1194 5.86696L11.5689 0.695722C11.1119 -0.226039 9.78787 -0.237757 9.32699 0.695722L6.77652 5.86696L1.0702 6.69889C0.0468878 6.84731 -0.363218 8.10887 0.378878 8.83144L4.50727 12.8544L3.53083 18.5373C3.35507 19.5645 4.43697 20.3339 5.34311 19.8535L10.4479 17.1702L15.5528 19.8535C16.4589 20.33 17.5408 19.5645 17.3651 18.5373L16.3886 12.8544L20.517 8.83144C21.2591 8.10887 20.849 6.84731 19.8257 6.69889ZM14.3771 12.1982L15.3028 17.6038L10.4479 15.0533L5.59308 17.6038L6.51874 12.1982L2.58954 8.37055L8.01856 7.58159L10.4479 2.66032L12.8773 7.58159L18.3064 8.37055L14.3771 12.1982Z" fill="black"/>
</svg>
