<svg version="1.1" xmlns="http://www.w3.org/2000/svg"
 viewBox="0 0 254 178"
 preserveAspectRatio="xMidYMid meet">

<g transform="translate(0.000000,178.000000) scale(0.100000,-0.100000)"
 fill="white" stroke="none">
<path d="M985 1769 c-339 -9 -576 -25 -669 -44 -161 -34 -246 -132 -275 -320
-57 -369 -34 -1022 41 -1182 42 -89 120 -148 228 -172 264 -58 1629 -58 1920
0 241 49 300 214 300 839 0 346 -24 569 -70 665 -44 90 -134 154 -246 174
-100 17 -316 30 -604 36 -151 3 -291 7 -310 9 -19 1 -161 -1 -315 -5z m542
-793 c79 -44 143 -84 143 -87 0 -5 -519 -308 -642 -376 -5 -2 -8 167 -8 376
l0 380 183 -106 c100 -58 246 -142 324 -187z"/>
</g>
</svg>